<svg width="116" height="116" viewBox="0 0 116 116" fill="none" xmlns="http://www.w3.org/2000/svg">
<path d="M44.4757 99.5709C46.0598 99.3615 47.6601 99.7911 48.922 100.763L54.7376 105.226C56.66 106.703 59.3343 106.703 61.2513 105.226L67.2871 100.591C68.4148 99.7266 69.8378 99.3454 71.2448 99.5333L78.7949 100.527C81.1952 100.844 83.5097 99.5065 84.4387 97.2671L87.3438 90.2428C87.8861 88.9271 88.9279 87.8853 90.2435 87.3429L97.2674 84.4376C99.5067 83.5139 100.844 81.194 100.527 78.7935L99.5711 71.5169C99.3617 69.9327 99.7913 68.3323 100.763 67.0703L105.226 61.2544C106.702 59.3318 106.702 56.6575 105.226 54.7403L100.591 48.7042C99.7268 47.5764 99.3456 46.1533 99.5335 44.7463L100.527 37.1958C100.844 34.7953 99.5067 32.4807 97.2674 31.5517L90.2435 28.6464C88.9279 28.104 87.8861 27.0622 87.3438 25.7465L84.4387 18.7222C83.515 16.4828 81.1952 15.1457 78.7949 15.4625L71.2448 16.456C69.8378 16.6493 68.4148 16.268 67.2925 15.4088L61.2567 10.7743C59.3343 9.29748 56.66 9.29748 54.743 10.7743L48.7072 15.4088C47.5795 16.268 46.1565 16.6493 44.7496 16.4667L37.1994 15.4732C34.7991 15.1564 32.4847 16.4936 31.5557 18.733L28.6559 25.7572C28.1082 27.0675 27.0664 28.1094 25.7561 28.6571L18.7323 31.5571C16.493 32.4861 15.1559 34.8007 15.4727 37.2012L16.4662 44.7517C16.6487 46.1587 16.2675 47.5818 15.4083 48.7042L10.7741 54.7403C9.29732 56.6628 9.29732 59.3372 10.7741 61.2544L15.4083 67.2905C16.2728 68.4183 16.6541 69.8414 16.4662 71.2484L15.4727 78.7989C15.1559 81.1994 16.493 83.5139 18.7323 84.443L25.7561 87.3483C27.0718 87.8907 28.1135 88.9325 28.6559 90.2482L31.561 97.2725C32.4847 99.5118 34.8045 100.849 37.2048 100.532L44.4757 99.5709Z" fill="#F3FAF4"/>
<path d="M43.4998 58L53.1665 67.6667L74.9165 45.9167M44.4757 99.5709C46.0598 99.3615 47.6601 99.7911 48.922 100.763L54.7376 105.226C56.66 106.703 59.3343 106.703 61.2513 105.226L67.2871 100.591C68.4148 99.7266 69.8378 99.3454 71.2448 99.5333L78.7949 100.527C81.1952 100.844 83.5097 99.5065 84.4387 97.2671L87.3438 90.2428C87.8861 88.9271 88.9279 87.8853 90.2435 87.3429L97.2674 84.4376C99.5067 83.5139 100.844 81.194 100.527 78.7935L99.5711 71.5169C99.3617 69.9327 99.7913 68.3323 100.763 67.0703L105.226 61.2544C106.702 59.3318 106.702 56.6575 105.226 54.7403L100.591 48.7042C99.7268 47.5764 99.3456 46.1533 99.5335 44.7463L100.527 37.1958C100.844 34.7953 99.5067 32.4807 97.2674 31.5517L90.2435 28.6464C88.9279 28.104 87.8861 27.0622 87.3438 25.7465L84.4387 18.7222C83.515 16.4828 81.1952 15.1457 78.7949 15.4625L71.2448 16.456C69.8378 16.6493 68.4148 16.268 67.2925 15.4088L61.2567 10.7743C59.3343 9.29748 56.66 9.29748 54.743 10.7743L48.7072 15.4088C47.5795 16.268 46.1565 16.6493 44.7496 16.4667L37.1994 15.4732C34.7991 15.1564 32.4847 16.4936 31.5557 18.733L28.6559 25.7572C28.1082 27.0675 27.0664 28.1094 25.7561 28.6571L18.7323 31.5571C16.493 32.4861 15.1559 34.8007 15.4727 37.2012L16.4662 44.7517C16.6487 46.1587 16.2675 47.5818 15.4083 48.7042L10.7741 54.7403C9.29732 56.6628 9.29732 59.3372 10.7741 61.2544L15.4083 67.2905C16.2728 68.4183 16.6541 69.8414 16.4662 71.2484L15.4727 78.7989C15.1559 81.1994 16.493 83.5139 18.7323 84.443L25.7561 87.3483C27.0718 87.8907 28.1135 88.9325 28.6559 90.2482L31.561 97.2725C32.4847 99.5118 34.8045 100.849 37.2048 100.532L44.4757 99.5709Z" stroke="#6FB97F" stroke-width="8" stroke-linecap="round" stroke-linejoin="round"/>
</svg>
