<svg width="16" height="16" viewBox="0 0 16 16" fill="none" xmlns="http://www.w3.org/2000/svg">
<path d="M13.9634 6.46564C13.7337 6.22555 13.496 5.97814 13.4064 5.7606C13.3235 5.56133 13.3187 5.23105 13.3138 4.91113C13.3047 4.31638 13.2949 3.64241 12.8263 3.1738C12.3577 2.70519 11.6837 2.69544 11.089 2.6863C10.769 2.68142 10.4388 2.67655 10.2395 2.59367C10.0226 2.5041 9.77455 2.26644 9.53446 2.03671C9.11399 1.63269 8.63624 1.17505 8.00005 1.17505C7.36386 1.17505 6.88672 1.63269 6.46564 2.03671C6.22555 2.26644 5.97814 2.5041 5.7606 2.59367C5.56255 2.67655 5.23105 2.68142 4.91113 2.6863C4.31638 2.69544 3.64241 2.70519 3.1738 3.1738C2.70519 3.64241 2.69849 4.31638 2.6863 4.91113C2.68142 5.23105 2.67655 5.56133 2.59367 5.7606C2.5041 5.97753 2.26644 6.22555 2.03671 6.46564C1.63269 6.88611 1.17505 7.36386 1.17505 8.00005C1.17505 8.63624 1.63269 9.11338 2.03671 9.53446C2.26644 9.77455 2.5041 10.022 2.59367 10.2395C2.67655 10.4388 2.68142 10.769 2.6863 11.089C2.69544 11.6837 2.70519 12.3577 3.1738 12.8263C3.64241 13.2949 4.31638 13.3047 4.91113 13.3138C5.23105 13.3187 5.56133 13.3235 5.7606 13.4064C5.97753 13.496 6.22555 13.7337 6.46564 13.9634C6.88611 14.3674 7.36386 14.825 8.00005 14.825C8.63624 14.825 9.11338 14.3674 9.53446 13.9634C9.77455 13.7337 10.022 13.496 10.2395 13.4064C10.4388 13.3235 10.769 13.3187 11.089 13.3138C11.6837 13.3047 12.3577 13.2949 12.8263 12.8263C13.2949 12.3577 13.3047 11.6837 13.3138 11.089C13.3187 10.769 13.3235 10.4388 13.4064 10.2395C13.496 10.0226 13.7337 9.77455 13.9634 9.53446C14.3674 9.11399 14.825 8.63624 14.825 8.00005C14.825 7.36386 14.3674 6.88672 13.9634 6.46564ZM10.7825 6.88246L7.36996 10.295C7.32468 10.3403 7.27091 10.3762 7.21173 10.4008C7.15255 10.4253 7.08911 10.4379 7.02505 10.4379C6.96098 10.4379 6.89755 10.4253 6.83837 10.4008C6.77918 10.3762 6.72542 10.3403 6.68014 10.295L5.21764 8.83246C5.12617 8.74098 5.07478 8.61691 5.07478 8.48755C5.07478 8.35818 5.12617 8.23412 5.21764 8.14264C5.30912 8.05117 5.43318 7.99978 5.56255 7.99978C5.69191 7.99978 5.81598 8.05117 5.90746 8.14264L7.02505 9.26085L10.0926 6.19264C10.1379 6.14735 10.1917 6.11142 10.2509 6.08691C10.3101 6.06239 10.3735 6.04978 10.4375 6.04978C10.5016 6.04978 10.565 6.06239 10.6242 6.08691C10.6834 6.11142 10.7372 6.14735 10.7825 6.19264C10.8277 6.23794 10.8637 6.29171 10.8882 6.35089C10.9127 6.41007 10.9253 6.47349 10.9253 6.53755C10.9253 6.6016 10.9127 6.66503 10.8882 6.72421C10.8637 6.78339 10.8277 6.83716 10.7825 6.88246Z" fill="#F7F7F7"/>
</svg>
