<svg width="16" height="16" viewBox="0 0 16 16" fill="none" xmlns="http://www.w3.org/2000/svg">
<path d="M13.8499 13.85C13.8499 13.9793 13.7985 14.1033 13.7071 14.1948C13.6157 14.2862 13.4917 14.3375 13.3624 14.3375H2.6374C2.50811 14.3375 2.38411 14.2862 2.29269 14.1948C2.20126 14.1033 2.1499 13.9793 2.1499 13.85C2.1499 13.7208 2.20126 13.5968 2.29269 13.5053C2.38411 13.4139 2.50811 13.3625 2.6374 13.3625H13.3624C13.4917 13.3625 13.6157 13.4139 13.7071 13.5053C13.7985 13.5968 13.8499 13.7208 13.8499 13.85ZM12.8749 8.00005H9.4362L10.3935 3.53394C10.4545 3.24966 10.4511 2.95535 10.3836 2.67254C10.3162 2.38973 10.1863 2.12559 10.0036 1.89945C9.82086 1.67331 9.58987 1.4909 9.32753 1.36556C9.06519 1.24022 8.77815 1.17513 8.4874 1.17505H7.5124C7.22166 1.17513 6.93461 1.24022 6.67228 1.36556C6.40994 1.4909 6.17895 1.67331 5.99621 1.89945C5.81348 2.12559 5.68362 2.38973 5.61616 2.67254C5.54869 2.95535 5.54531 3.24966 5.60628 3.53394L6.56361 8.00005H3.1249C2.86632 8.00005 2.61832 8.10277 2.43547 8.28562C2.25263 8.46847 2.1499 8.71646 2.1499 8.97505V11.4125C2.1499 11.6711 2.25263 11.9191 2.43547 12.102C2.61832 12.2848 2.86632 12.3875 3.1249 12.3875H12.8749C13.1335 12.3875 13.3815 12.2848 13.5643 12.102C13.7472 11.9191 13.8499 11.6711 13.8499 11.4125V8.97505C13.8499 8.71646 13.7472 8.46847 13.5643 8.28562C13.3815 8.10277 13.1335 8.00005 12.8749 8.00005Z" fill="#F7F7F7"/>
</svg>
