<svg width="24" height="24" viewBox="0 0 24 24" fill="none" xmlns="http://www.w3.org/2000/svg">
<path d="M24 20.25C24 20.4489 23.921 20.6397 23.7803 20.7803C23.6397 20.921 23.4489 21 23.25 21H9.75C9.55109 21 9.36032 20.921 9.21967 20.7803C9.07902 20.6397 9 20.4489 9 20.25C9 20.0511 9.07902 19.8603 9.21967 19.7197C9.36032 19.579 9.55109 19.5 9.75 19.5H23.25C23.4489 19.5 23.6397 19.579 23.7803 19.7197C23.921 19.8603 24 20.0511 24 20.25ZM21.5475 17.9719L4.98844 13.335C4.20145 13.1126 3.50838 12.6398 3.01423 11.9881C2.52009 11.3365 2.2518 10.5415 2.25 9.72374V4.49999C2.24998 4.2623 2.30645 4.02801 2.41475 3.81642C2.52305 3.60484 2.68008 3.42202 2.8729 3.28304C3.06572 3.14405 3.28881 3.05288 3.52379 3.01703C3.75876 2.98119 3.99888 3.00169 4.22438 3.07686L4.73719 3.24749C4.84474 3.28323 4.94279 3.34288 5.02398 3.42195C5.10517 3.50103 5.16738 3.59748 5.20594 3.70405L6.19969 6.45749L9 7.2553V4.49999C8.99998 4.2623 9.05645 4.02801 9.16475 3.81642C9.27305 3.60484 9.43008 3.42202 9.6229 3.28304C9.81572 3.14405 10.0388 3.05288 10.2738 3.01703C10.5088 2.98119 10.7489 3.00169 10.9744 3.07686L11.4872 3.24749C11.5887 3.28131 11.6818 3.33646 11.7602 3.40922C11.8386 3.48198 11.9006 3.57068 11.9419 3.66936L14.0513 8.69718L19.755 10.2909C20.5436 10.5124 21.2384 10.9852 21.7338 11.6374C22.2292 12.2897 22.4983 13.0859 22.5 13.905V17.25C22.5 17.3657 22.4731 17.4799 22.4216 17.5836C22.3701 17.6872 22.2953 17.7775 22.203 17.8475C22.1108 17.9174 22.0036 17.965 21.8899 17.9866C21.7761 18.0081 21.659 18.0031 21.5475 17.9719ZM21 13.905C20.9987 13.4134 20.8371 12.9357 20.5396 12.5444C20.2422 12.153 19.8251 11.8694 19.3519 11.7366L13.2984 10.0491C13.1894 10.0187 13.0886 9.96403 13.0037 9.88918C12.9188 9.81433 12.8519 9.72123 12.8081 9.61686L10.6875 4.5628L10.5 4.49999V8.24999C10.5001 8.36606 10.4732 8.48056 10.4215 8.58448C10.3699 8.6884 10.2948 8.77891 10.2022 8.84889C10.1096 8.91886 10.002 8.96639 9.88789 8.98773C9.7738 9.00907 9.65632 9.00364 9.54469 8.97186L5.41969 7.79624C5.30515 7.76341 5.20009 7.70377 5.11319 7.62226C5.02629 7.54074 4.96007 7.4397 4.92 7.32749L3.91781 4.5553L3.75 4.49999V9.72374C3.75121 10.2145 3.91228 10.6916 4.2088 11.0827C4.50533 11.4737 4.92119 11.7576 5.39344 11.8912L21 16.2609V13.905Z" fill="#5F646D"/>
</svg>
