<svg width="6" height="27" viewBox="0 0 6 27" fill="none" xmlns="http://www.w3.org/2000/svg">
<path opacity="0.5" d="M3 21.8667C1.82179 21.8667 0.866668 22.8218 0.866668 24C0.866668 25.1782 1.82179 26.1333 3 26.1333C4.17821 26.1333 5.13333 25.1782 5.13333 24C5.13333 22.8218 4.17821 21.8667 3 21.8667ZM3 0L2.6 1.74846e-08L2.6 1L3 1L3.4 1L3.4 -1.74846e-08L3 0ZM3 3L2.6 3L2.6 5L3 5L3.4 5L3.4 3L3 3ZM3 7L2.6 7L2.6 9L3 9L3.4 9L3.4 7L3 7ZM3 11L2.6 11L2.6 13L3 13L3.4 13L3.4 11L3 11ZM3 15L2.6 15L2.6 17L3 17L3.4 17L3.4 15L3 15ZM3 19L2.6 19L2.6 21L3 21L3.4 21L3.4 19L3 19ZM3 23L2.6 23L2.6 24L3 24L3.4 24L3.4 23L3 23Z" fill="#92722A"/>
</svg>
