<svg width="16" height="16" viewBox="0 0 16 16" fill="none" xmlns="http://www.w3.org/2000/svg">
<g clip-path="url(#clip0_453_1947)">
<path d="M14.2764 12.0354C15.2216 12.0354 15.9891 12.8097 15.9893 13.7649C15.9893 14.7203 15.2217 15.4944 14.2764 15.4954C13.6639 15.4953 13.0978 15.1656 12.792 14.6311C12.6415 14.3677 12.5625 14.0692 12.5625 13.7659C12.5625 13.4625 12.6415 13.164 12.792 12.9006C12.941 12.6383 13.1573 12.4198 13.418 12.2678C13.6785 12.1159 13.9748 12.0359 14.2764 12.0354ZM5.5791 7.4231C5.54065 7.59893 5.52054 7.77882 5.52051 7.96021C5.52051 8.16867 5.54608 8.37586 5.59668 8.57642H3.42773C2.61137 8.57642 1.85697 9.01635 1.44922 9.72974C1.24881 10.0809 1.14355 10.4788 1.14355 10.8831C1.14363 11.2872 1.24888 11.6844 1.44922 12.0354C1.64803 12.385 1.93574 12.6757 2.2832 12.8782C2.6307 13.0807 3.02552 13.1881 3.42773 13.1887H10.8506C10.951 13.1889 11.0499 13.2153 11.1367 13.2659C11.2236 13.3166 11.2961 13.3902 11.3457 13.4778C11.3957 13.5655 11.4219 13.6649 11.4219 13.7659C11.4218 13.8669 11.3957 13.9662 11.3457 14.054C11.296 14.1413 11.2236 14.2143 11.1367 14.2649C11.0499 14.3154 10.951 14.342 10.8506 14.342H3.42773C1.53401 14.342 0 12.7928 0 10.8831C4.95287e-05 8.97238 1.53406 7.4231 3.42676 7.4231H5.5791ZM12.5635 1.65845C14.4552 1.65845 15.9893 3.20771 15.9893 5.11743C15.989 7.02796 14.4551 8.57642 12.5625 8.57642H10.4805C10.5302 8.37899 10.5595 8.17312 10.5596 7.96021C10.5596 7.77585 10.5386 7.5962 10.501 7.4231H12.5625C13.379 7.4231 14.1333 6.9833 14.541 6.26978C14.7413 5.91871 14.8467 5.52162 14.8467 5.11743C14.8467 4.71322 14.7414 4.31616 14.541 3.96509C14.3422 3.61545 14.0545 3.32387 13.707 3.12134C13.3596 2.91892 12.9646 2.81242 12.5625 2.81177H5.13965C5.06432 2.81137 4.98937 2.79604 4.91992 2.76685C4.85058 2.73766 4.7873 2.69532 4.73438 2.64185C4.6814 2.58831 4.63979 2.52408 4.61133 2.45435C4.58296 2.3847 4.56894 2.30982 4.56934 2.23462C4.56952 1.91599 4.82399 1.65845 5.13867 1.65845H12.5635ZM1.71289 0.505127C2.65913 0.505149 3.42757 1.27944 3.42773 2.23364C3.42773 3.18999 2.66022 3.96508 1.71387 3.96509H1.71289C1.10138 3.96509 0.535315 3.63537 0.229492 3.09985C0.0792073 2.83655 0.000976562 2.53779 0.000976562 2.23462C0.00103508 1.93157 0.0792705 1.63356 0.229492 1.37036C0.378338 1.10829 0.594228 0.890502 0.854492 0.738525C1.11494 0.586539 1.41134 0.505794 1.71289 0.505127Z" fill="#B68A35"/>
<path d="M6.54968 8.83525C6.85547 9.36989 7.4211 9.69967 8.03368 9.69967C8.97905 9.69867 9.74653 8.92519 9.74653 7.96983C9.74653 7.01447 8.97905 6.23999 8.03368 6.23999C7.73196 6.24048 7.43575 6.3208 7.17511 6.4728C6.91447 6.62479 6.69869 6.84305 6.54968 7.10541C6.39921 7.36883 6.32007 7.66696 6.32007 7.97033C6.32007 8.2737 6.39921 8.57182 6.54968 8.83525Z" fill="#B68A35"/>
</g>
<defs>
<clipPath id="clip0_453_1947">
<rect width="16" height="16" fill="white"/>
</clipPath>
</defs>
</svg>
