<svg width="15" height="14" viewBox="0 0 15 14" fill="none" xmlns="http://www.w3.org/2000/svg">
<path d="M12.9688 7C12.9688 7.17405 12.8996 7.34097 12.7765 7.46404C12.6535 7.58711 12.4865 7.65625 12.3125 7.65625H8.15625V11.8125C8.15625 11.9865 8.08711 12.1535 7.96404 12.2765C7.84097 12.3996 7.67405 12.4688 7.5 12.4688C7.32595 12.4688 7.15903 12.3996 7.03596 12.2765C6.91289 12.1535 6.84375 11.9865 6.84375 11.8125V7.65625H2.6875C2.51345 7.65625 2.34653 7.58711 2.22346 7.46404C2.10039 7.34097 2.03125 7.17405 2.03125 7C2.03125 6.82595 2.10039 6.65903 2.22346 6.53596C2.34653 6.41289 2.51345 6.34375 2.6875 6.34375H6.84375V2.1875C6.84375 2.01345 6.91289 1.84653 7.03596 1.72346C7.15903 1.60039 7.32595 1.53125 7.5 1.53125C7.67405 1.53125 7.84097 1.60039 7.96404 1.72346C8.08711 1.84653 8.15625 2.01345 8.15625 2.1875V6.34375H12.3125C12.4865 6.34375 12.6535 6.41289 12.7765 6.53596C12.8996 6.65903 12.9688 6.82595 12.9688 7Z" fill="#7C5E24"/>
</svg>
