<svg width="16" height="16" viewBox="0 0 16 16" fill="none" xmlns="http://www.w3.org/2000/svg">
<path d="M14.1204 5.64408L8.27042 1.74408C8.19031 1.69063 8.09616 1.66211 7.99985 1.66211C7.90355 1.66211 7.8094 1.69063 7.72929 1.74408L1.87929 5.64408C1.81251 5.68864 1.75777 5.749 1.71992 5.8198C1.68208 5.8906 1.6623 5.96965 1.66235 6.04993V12.3874C1.66235 12.646 1.76508 12.894 1.94792 13.0769C2.13077 13.2597 2.37877 13.3624 2.63735 13.3624H13.3624C13.6209 13.3624 13.8689 13.2597 14.0518 13.0769C14.2346 12.894 14.3374 12.646 14.3374 12.3874V6.04993C14.3374 5.96965 14.3176 5.8906 14.2798 5.8198C14.2419 5.749 14.1872 5.68864 14.1204 5.64408ZM6.09373 9.46243L2.63735 11.8999V6.99629L6.09373 9.46243ZM7.09128 9.94993H8.90843L12.3593 12.3874H3.64038L7.09128 9.94993ZM9.90598 9.46243L13.3624 6.99629V11.8999L9.90598 9.46243Z" fill="white"/>
</svg>
