<svg width="24" height="24" viewBox="0 0 24 24" fill="none" xmlns="http://www.w3.org/2000/svg">
<path d="M16.5003 20.25C16.5003 20.4489 16.4213 20.6397 16.2806 20.7803C16.14 20.921 15.9492 21 15.7503 21H2.25029C2.05138 21 1.86062 20.921 1.71996 20.7803C1.57931 20.6397 1.50029 20.4489 1.50029 20.25C1.50029 20.0511 1.57931 19.8603 1.71996 19.7197C1.86062 19.579 2.05138 19.5 2.25029 19.5H15.7503C15.9492 19.5 16.14 19.579 16.2806 19.7197C16.4213 19.8603 16.5003 20.0511 16.5003 20.25ZM23.2372 8.73281C23.2175 8.83719 23.176 8.93622 23.1152 9.02333C23.0544 9.11045 22.9759 9.18366 22.8847 9.23812L9.06498 17.4881C8.48892 17.8259 7.83341 18.0045 7.16561 18.0056C6.21434 18.0045 5.29944 17.64 4.60811 16.9866L4.59686 16.9753L1.21904 13.6687C1.04033 13.499 0.906182 13.2879 0.828471 13.054C0.750759 12.8201 0.731876 12.5707 0.77349 12.3278C0.815105 12.0849 0.915935 11.8559 1.06706 11.6612C1.21819 11.4666 1.41497 11.3121 1.63998 11.2116L1.92123 11.0737C2.09885 10.9865 2.30372 10.9731 2.49123 11.0362L5.14061 11.9306L7.03154 10.7869L4.98498 8.80031C4.80093 8.63074 4.66223 8.41783 4.58151 8.18095C4.50079 7.94407 4.48062 7.69076 4.52283 7.4441C4.56505 7.19743 4.6683 6.96524 4.8232 6.76869C4.9781 6.57214 5.17971 6.41746 5.40967 6.31875L5.43967 6.30656L6.10998 6.0525C6.27898 5.98948 6.46504 5.98948 6.63404 6.0525L11.6909 7.91062L16.5256 5.025C17.2961 4.56645 18.2058 4.40051 19.0885 4.5575C19.9713 4.71449 20.768 5.18393 21.3331 5.88L21.3444 5.89406L23.0919 8.13375C23.1571 8.21761 23.2038 8.31438 23.2289 8.41766C23.254 8.52094 23.2568 8.62836 23.2372 8.73281ZM21.3865 8.38593L20.1678 6.82312C19.8286 6.40815 19.3517 6.12865 18.8239 6.03541C18.2961 5.94217 17.7524 6.04137 17.2915 6.315L12.154 9.3825C12.0578 9.43955 11.9501 9.47452 11.8388 9.4849C11.7274 9.49527 11.6151 9.48079 11.51 9.4425L6.37529 7.55437L6.00029 7.69781L6.01998 7.71656L8.77248 10.3875C8.85468 10.4674 8.91749 10.565 8.95606 10.673C8.99464 10.7809 9.00797 10.8962 8.99503 11.0101C8.98208 11.124 8.94321 11.2334 8.88139 11.3299C8.81957 11.4264 8.73645 11.5075 8.63842 11.5669L5.61873 13.3941C5.52532 13.4505 5.42071 13.4858 5.31223 13.4977C5.20374 13.5095 5.09398 13.4975 4.99061 13.4625L2.30279 12.5559L2.28498 12.5653L2.25029 12.5812C2.25481 12.5845 2.2589 12.5883 2.26248 12.5925L5.63748 15.8981C5.9897 16.2291 6.43969 16.4371 6.92003 16.4908C7.40037 16.5446 7.88519 16.4412 8.30186 16.1962L21.3865 8.38593Z" fill="#5F646D"/>
</svg>
