<svg xmlns="http://www.w3.org/2000/svg" width="32" height="34" viewBox="0 0 32 34" fill="none">
  <path d="M13.3018 0.63672C16.8304 0.148951 20.4246 0.713804 23.6329 2.26032C24.1502 2.53093 24.7428 2.73235 25.1277 3.19217C25.4189 3.5645 25.2153 4.08942 24.92 4.39461C24.5331 4.74049 24.028 4.45972 23.637 4.28067C21.0527 2.95005 18.1609 2.1179 15.2385 2.23998C12.8884 2.33154 10.581 3.02737 8.52214 4.1525C8.19222 4.32137 7.86028 4.51465 7.48963 4.57976C6.70151 4.52889 6.33698 3.33052 7.07419 2.93377C8.96738 1.74334 11.0885 0.960965 13.3018 0.63672Z" fill="#1D1C1B"/>
  <path d="M14.8677 4.59209C15.2363 4.42932 15.6619 4.51274 16.0529 4.49239C19.291 4.51681 22.5575 5.4812 25.1561 7.44255C26.5045 8.45864 27.6898 9.6744 28.6711 11.0478C29.06 11.5484 28.7016 12.3764 28.0744 12.4395C27.5001 12.5555 27.1885 11.9939 26.8871 11.6196C24.2091 8.14449 19.8143 6.05292 15.4176 6.29301C14.4482 6.48629 13.9839 5.00104 14.8677 4.59209ZM11.4525 5.07428C12.1347 4.69585 12.9636 5.4222 12.7029 6.14855C12.5033 6.78945 11.7315 6.78131 11.2102 6.99697C8.40387 7.87592 6.14336 9.96748 4.52434 12.3622C4.24534 12.7569 3.95412 13.2411 3.42667 13.3144C2.75463 13.2839 2.20478 12.4843 2.62429 11.8841C3.80546 10.3052 5.0579 8.73452 6.67284 7.5748C8.13912 6.52495 9.7337 5.63176 11.4525 5.07428ZM4.31662 5.2106C4.86647 4.74672 5.79715 5.25333 5.7218 5.96544C5.75235 6.58802 4.99681 7.08039 4.44899 6.75486C3.86452 6.48629 3.7912 5.5809 4.31458 5.2106H4.31662Z" fill="#1D1C1B"/>
  <path d="M14.3178 8.36001C15.9302 8.10513 17.5776 8.18038 19.16 8.5812C20.7424 8.98202 22.2267 9.70005 23.5228 10.6917C26.0928 12.6449 27.7404 15.7578 27.8605 18.9867C27.9094 20.6225 27.832 22.3641 26.9991 23.8168C26.3413 25.005 24.9137 25.6581 23.5818 25.4954C22.7917 25.3651 22.6206 24.1729 23.3293 23.8148C23.869 23.6134 24.5003 23.7456 25.0053 23.4282C25.9279 22.9074 26.2374 21.7822 26.3128 20.7975C26.4675 18.3275 25.8383 15.7517 24.2926 13.7863C23.0238 12.1545 21.1706 11.0274 19.181 10.5106C16.395 9.77813 13.2772 9.96124 10.7641 11.4526C7.93341 13.0843 6.10057 16.1586 5.70345 19.3692C5.42038 21.3489 5.70345 23.3611 6.23498 25.2736C6.37346 25.6764 6.36735 26.1892 5.98652 26.4577C5.51813 26.8646 4.70964 26.5757 4.60171 25.9694C3.64455 22.6327 3.51015 18.9501 4.8359 15.6907C6.37753 11.77 10.2163 9.03753 14.3178 8.36001Z" fill="#1D1C1B"/>
  <path d="M16.5214 12.3499C17.002 11.9837 17.7697 12.3153 17.8675 12.9013C18.065 13.5686 17.3115 14.2604 16.668 13.9491C16.0204 13.6988 15.9389 12.7141 16.5214 12.3499ZM19.7859 13.5503C19.9409 13.4434 20.1265 13.3899 20.3147 13.398C20.5029 13.4061 20.6833 13.4753 20.8286 13.5951C22.7062 15.0356 23.9179 17.2614 24.258 19.589C24.3191 20.1261 24.4006 20.6958 24.2132 21.2167C23.8405 21.9003 22.6064 21.6602 22.6329 20.8301C22.4552 18.6139 21.4289 16.5515 19.7675 15.0722C19.2523 14.7182 19.2584 13.884 19.7879 13.5503H19.7859ZM29.3615 13.7823C29.9052 13.3957 30.7259 13.8596 30.7076 14.5167C30.789 15.2146 29.895 15.7416 29.335 15.3062C28.8075 14.9705 28.8259 14.0976 29.3615 13.7823ZM1.23137 14.7568C1.64274 14.5127 2.21499 14.7182 2.41661 15.1434C2.64877 15.5381 2.40235 15.9674 2.30053 16.3601C1.9421 17.4099 1.8138 18.5167 1.73031 19.6175C1.68958 20.1363 1.0827 20.5127 0.598017 20.3174C0.410936 20.2528 0.250809 20.1276 0.143071 19.9618C0.0353322 19.7959 -0.0138412 19.5988 0.00336074 19.4018C0.0598569 18.1075 0.289298 16.8266 0.685586 15.593C0.793521 15.2777 0.903491 14.9114 1.23137 14.7589V14.7568ZM14.5093 16.2746C14.9981 16.1485 15.5276 15.9654 16.0245 16.1241C16.6639 16.3621 16.7515 17.3346 16.1792 17.6948C15.6783 17.9288 15.0836 17.8718 14.5969 18.1526C13.6133 18.6429 13.0695 19.7538 13.0654 20.826C13.0939 23.4242 13.9839 26.0814 15.8351 27.9532C17.0593 29.2126 18.5759 30.1505 20.2502 30.6836C20.7328 30.8077 21.2033 31.2574 21.0179 31.7965C20.9467 32.3154 20.3805 32.5534 19.9142 32.413C17.4867 31.9532 15.4339 30.3296 13.9432 28.4211C12.1673 26.1078 11.0208 23.1638 11.3446 20.2156C11.5136 18.4354 12.7905 16.8057 14.5093 16.2746ZM30.785 16.6307C31.3715 16.3601 32.0802 16.9196 31.9926 17.5462C31.9865 18.177 31.2106 18.6083 30.675 18.2665C30.0437 17.9288 30.1068 16.8728 30.785 16.6307ZM18.3542 17.414C18.9387 17.0437 19.5578 17.5646 19.7594 18.1119C20.0505 18.7057 20.2523 19.3391 20.3581 19.9918C20.4151 20.8484 19.1729 21.296 18.6923 20.5717C18.4031 19.941 18.2646 19.2451 17.9999 18.6022C17.7901 18.1851 17.9388 17.6337 18.3542 17.412V17.414Z" fill="#1D1C1B"/>
  <path d="M15.505 20.0792C15.9755 19.7659 16.7371 20.0121 16.7534 20.6285C16.8695 21.8208 17.0324 23.0416 17.6332 24.1036C18.1682 25.1072 18.968 25.9453 19.9459 26.5271C20.9238 27.1088 22.0425 27.412 23.1806 27.4037C23.6693 27.4403 24.2905 27.2288 24.655 27.6703C25.1091 28.1423 24.8485 29.0395 24.1948 29.1616C21.1298 29.6499 17.9244 28.0121 16.3278 25.3874C15.5512 24.1322 15.1257 22.6919 15.0957 21.2165C15.0957 20.8137 15.1303 20.3172 15.505 20.0772V20.0792Z" fill="#1D1C1B"/>
  <path d="M20.3643 22.4821C21.0363 22.1709 21.798 22.9786 21.5068 23.6439C21.3499 24.2156 20.57 24.4537 20.1219 24.0671C19.5782 23.6622 19.7146 22.6897 20.3622 22.4821H20.3643ZM26.7181 26.1932C27.3291 25.7314 28.2516 26.4069 28.0622 27.1231C27.9828 27.7395 27.1865 28.0997 26.6876 27.709C26.1744 27.3713 26.1866 26.5086 26.7161 26.1932H26.7181ZM6.13732 28.2116C6.68921 27.8453 7.49159 28.3092 7.47326 28.9644C7.53843 29.6439 6.6994 30.1688 6.12511 29.768C5.56507 29.4425 5.58136 28.533 6.13732 28.2116Z" fill="#1D1C1B"/>
  <path d="M13.2917 12.6021C13.6542 12.4801 14.1226 12.3641 14.428 12.6693C14.9473 13.0762 14.7844 14.0284 14.1307 14.1952C12.1757 14.8056 10.5139 16.299 9.76649 18.2115C9.18202 19.6195 9.2085 21.1881 9.38567 22.6774C9.58932 24.4272 10.2003 26.1057 11.0474 27.6419C11.4649 28.238 10.8438 29.1332 10.1432 28.9664C9.44269 28.8117 9.2981 27.9857 8.9967 27.4425C7.88274 24.6449 7.03148 21.5116 7.84201 18.5187C8.53645 15.8127 10.6116 13.4729 13.2917 12.6021Z" fill="#1EAB75"/>
  <path d="M11.6502 30.0345C12.0412 29.709 12.6134 29.8616 12.9128 30.238C13.5582 30.8892 14.2564 31.486 15.0002 32.0223C15.6885 32.4618 15.212 33.6663 14.4055 33.5218C13.2855 33.1047 12.3079 32.3234 11.5544 31.4058C11.1981 31.0213 11.2164 30.3478 11.6502 30.0345Z" fill="#E82026"/>
</svg>