<svg width="16" height="16" viewBox="0 0 16 16" fill="none" xmlns="http://www.w3.org/2000/svg">
<path d="M10.4374 7.02485C10.4374 7.69978 10.2372 8.35955 9.86226 8.92074C9.48729 9.48192 8.95433 9.91931 8.33078 10.1776C7.70723 10.4359 7.02109 10.5035 6.35913 10.3718C5.69717 10.2401 5.08912 9.9151 4.61187 9.43785C4.13462 8.96061 3.80961 8.35256 3.67794 7.6906C3.54627 7.02864 3.61385 6.3425 3.87213 5.71895C4.13042 5.09539 4.56781 4.56243 5.12899 4.18746C5.69017 3.81249 6.34994 3.61235 7.02487 3.61235C7.92992 3.61235 8.79791 3.97188 9.43787 4.61185C10.0778 5.25182 10.4374 6.1198 10.4374 7.02485ZM14.1948 14.1948C14.1495 14.2401 14.0957 14.276 14.0366 14.3006C13.9774 14.3251 13.9139 14.3377 13.8499 14.3377C13.7858 14.3377 13.7224 14.3251 13.6632 14.3006C13.604 14.276 13.5502 14.2401 13.505 14.1948L10.4544 11.1436C9.39358 12.0262 8.03332 12.4658 6.6566 12.371C5.27989 12.2763 3.99269 11.6544 3.06277 10.6348C2.13285 9.61522 1.63178 8.27638 1.6638 6.89678C1.69582 5.51717 2.25845 4.20302 3.23467 3.22766C4.21089 2.2523 5.52555 1.69083 6.90518 1.66003C8.28481 1.62923 9.62321 2.13148 10.642 3.0623C11.6608 3.99313 12.2815 5.28087 12.375 6.65767C12.4686 8.03447 12.0277 9.39434 11.1442 10.4544L14.1948 13.5049C14.2401 13.5502 14.2761 13.604 14.3006 13.6632C14.3251 13.7224 14.3378 13.7858 14.3378 13.8499C14.3378 13.9139 14.3251 13.9774 14.3006 14.0365C14.2761 14.0957 14.2401 14.1495 14.1948 14.1948ZM7.02487 11.4124C7.89264 11.4124 8.74092 11.155 9.46244 10.6729C10.184 10.1908 10.7463 9.50559 11.0784 8.70388C11.4105 7.90216 11.4974 7.01999 11.3281 6.16889C11.1588 5.3178 10.7409 4.53602 10.1273 3.92242C9.5137 3.30882 8.73192 2.89095 7.88083 2.72166C7.02974 2.55236 6.14756 2.63925 5.34585 2.97133C4.54414 3.30341 3.8589 3.86577 3.3768 4.58729C2.89469 5.30881 2.63737 6.15709 2.63737 7.02485C2.63866 8.18809 3.10133 9.30332 3.92387 10.1259C4.7464 10.9484 5.86163 11.4111 7.02487 11.4124Z" fill="white"/>
</svg>
