<svg width="16" height="16" viewBox="0 0 16 16" fill="none" xmlns="http://www.w3.org/2000/svg">
<path d="M12.3875 4.80917V2.63735C12.3875 2.37877 12.2848 2.13077 12.102 1.94792C11.9191 1.76508 11.6711 1.66235 11.4125 1.66235H4.58755C4.32896 1.66235 4.08097 1.76508 3.89812 1.94792C3.71527 2.13077 3.61255 2.37877 3.61255 2.63735V4.8311C3.61288 4.98241 3.64826 5.13158 3.71593 5.26691C3.7836 5.40225 3.8817 5.52006 4.00255 5.6111L7.18775 7.99985L4.00255 10.3886C3.8817 10.4797 3.7836 10.5975 3.71593 10.7328C3.64826 10.8681 3.61288 11.0173 3.61255 11.1686V13.3624C3.61255 13.6209 3.71527 13.8689 3.89812 14.0518C4.08097 14.2346 4.32896 14.3374 4.58755 14.3374H11.4125C11.6711 14.3374 11.9191 14.2346 12.102 14.0518C12.2848 13.8689 12.3875 13.6209 12.3875 13.3624V11.1905C12.3872 11.0398 12.3521 10.8912 12.285 10.7562C12.2179 10.6213 12.1206 10.5036 12.0006 10.4124L8.80869 7.99985L12.0006 5.58734C12.1206 5.4961 12.2179 5.37843 12.285 5.24347C12.3521 5.10851 12.3872 4.95989 12.3875 4.80917ZM11.4125 11.1905V13.3624H4.58755V11.1686L7.51255 8.97485V10.4374C7.51255 10.5666 7.56391 10.6906 7.65533 10.7821C7.74676 10.8735 7.87076 10.9249 8.00005 10.9249C8.12934 10.9249 8.25334 10.8735 8.34476 10.7821C8.43619 10.6906 8.48755 10.5666 8.48755 10.4374V8.97973L11.4125 11.1905ZM11.4125 4.80917L11.0609 5.07485H4.91235L4.58755 4.8311V2.63735H11.4125V4.80917Z" fill="#F9F7ED"/>
</svg>
