<svg width="16" height="16" viewBox="0 0 16 16" fill="none" xmlns="http://www.w3.org/2000/svg">
<path d="M7.82373 9.80858C8.45189 9.28058 8.90246 8.57216 9.11434 7.7794C9.32622 6.98664 9.28915 6.14789 9.00816 5.37691C8.72718 4.60592 8.21587 3.94002 7.54359 3.46949C6.8713 2.99896 6.07056 2.74658 5.24998 2.74658C4.42939 2.74658 3.62865 2.99896 2.95636 3.46949C2.28408 3.94002 1.77277 4.60592 1.49179 5.37691C1.2108 6.14789 1.17373 6.98664 1.38561 7.7794C1.59749 8.57216 2.04807 9.28058 2.67623 9.80858C1.69534 10.2521 0.845298 10.9409 0.2081 11.8086C0.0904106 11.9689 0.0412491 12.1695 0.0714307 12.3661C0.101612 12.5627 0.208665 12.7393 0.369038 12.857C0.529411 12.9747 0.729968 13.0239 0.926588 12.9937C1.12321 12.9635 1.29979 12.8564 1.41748 12.6961C1.85856 12.0937 2.43545 11.6037 3.10133 11.266C3.76722 10.9282 4.50334 10.7522 5.24998 10.7522C5.99661 10.7522 6.73273 10.9282 7.39862 11.266C8.0645 11.6037 8.64139 12.0937 9.08248 12.6961C9.20017 12.8565 9.37677 12.9637 9.57345 12.9939C9.77013 13.0241 9.97077 12.975 10.1312 12.8573C10.2917 12.7396 10.3988 12.563 10.4291 12.3663C10.4593 12.1697 10.4102 11.969 10.2925 11.8086C9.6549 10.941 8.80469 10.2523 7.82373 9.80858ZM2.74998 6.74983C2.74998 6.25537 2.8966 5.77202 3.1713 5.3609C3.446 4.94978 3.83645 4.62935 4.29327 4.44013C4.75008 4.25091 5.25275 4.2014 5.7377 4.29786C6.22265 4.39433 6.66811 4.63243 7.01774 4.98206C7.36737 5.33169 7.60548 5.77715 7.70194 6.2621C7.7984 6.74705 7.74889 7.24972 7.55967 7.70654C7.37046 8.16335 7.05002 8.5538 6.6389 8.8285C6.22778 9.1032 5.74443 9.24983 5.24998 9.24983C4.58693 9.24983 3.95105 8.98643 3.48221 8.51759C3.01337 8.04875 2.74998 7.41287 2.74998 6.74983ZM15.6312 12.8542C15.5518 12.9125 15.4617 12.9547 15.366 12.9782C15.2703 13.0017 15.171 13.0061 15.0736 12.9912C14.9762 12.9763 14.8827 12.9423 14.7984 12.8912C14.7141 12.8402 14.6408 12.773 14.5825 12.6936C14.1403 12.0923 13.5632 11.6032 12.8975 11.2656C12.2319 10.928 11.4963 10.7514 10.75 10.7498C10.5511 10.7498 10.3603 10.6708 10.2196 10.5302C10.079 10.3895 9.99998 10.1987 9.99998 9.99983C9.99998 9.80091 10.079 9.61015 10.2196 9.4695C10.3603 9.32884 10.5511 9.24983 10.75 9.24983C11.1053 9.24919 11.4564 9.17282 11.7799 9.02579C12.1034 8.87877 12.3919 8.66447 12.626 8.39719C12.8601 8.12991 13.0346 7.81578 13.1378 7.47576C13.241 7.13573 13.2705 6.77761 13.2244 6.42528C13.1782 6.07295 13.0575 5.73451 12.8703 5.4325C12.6831 5.1305 12.4336 4.87188 12.1385 4.67389C11.8435 4.47589 11.5096 4.34307 11.1591 4.28428C10.8087 4.22549 10.4497 4.24209 10.1062 4.33295C10.0103 4.36071 9.90976 4.36902 9.81056 4.35741C9.71136 4.34579 9.61548 4.31447 9.52854 4.2653C9.44161 4.21613 9.36537 4.15008 9.3043 4.07105C9.24324 3.99201 9.19857 3.90157 9.17293 3.80504C9.14729 3.70851 9.14118 3.60783 9.15498 3.50891C9.16877 3.40999 9.20219 3.31482 9.25326 3.22898C9.30434 3.14315 9.37204 3.06838 9.4524 3.00907C9.53276 2.94976 9.62415 2.90709 9.72122 2.88358C10.5996 2.65083 11.5311 2.72411 12.3623 3.09137C13.1935 3.45863 13.8749 4.09797 14.2943 4.90413C14.7137 5.7103 14.8461 6.63523 14.6696 7.52667C14.4932 8.41811 14.0185 9.22291 13.3237 9.80858C14.3046 10.2521 15.1547 10.9409 15.7919 11.8086C15.9087 11.9687 15.9574 12.1686 15.9273 12.3645C15.8972 12.5605 15.7908 12.7365 15.6312 12.8542Z" fill="#3E4046"/>
</svg>
