<svg width="12" height="12" viewBox="0 0 12 12" fill="none" xmlns="http://www.w3.org/2000/svg">
<path d="M6 1.12512C5.03582 1.12512 4.09329 1.41104 3.2916 1.94671C2.48991 2.48238 1.86507 3.24375 1.49609 4.13454C1.12711 5.02533 1.03057 6.00553 1.21867 6.95119C1.40678 7.89684 1.87108 8.76549 2.55286 9.44727C3.23464 10.129 4.10328 10.5933 5.04894 10.7815C5.99459 10.9696 6.97479 10.873 7.86558 10.504C8.75637 10.1351 9.51775 9.51022 10.0534 8.70853C10.5891 7.90684 10.875 6.96431 10.875 6.00012C10.8736 4.70761 10.3596 3.46843 9.44564 2.55448C8.5317 1.64054 7.29251 1.12649 6 1.12512ZM5.625 3.75012C5.625 3.65067 5.66451 3.55528 5.73484 3.48496C5.80516 3.41463 5.90055 3.37512 6 3.37512C6.09946 3.37512 6.19484 3.41463 6.26517 3.48496C6.33549 3.55528 6.375 3.65067 6.375 3.75012V6.37512C6.375 6.47458 6.33549 6.56996 6.26517 6.64029C6.19484 6.71061 6.09946 6.75012 6 6.75012C5.90055 6.75012 5.80516 6.71061 5.73484 6.64029C5.66451 6.56996 5.625 6.47458 5.625 6.37512V3.75012ZM6 8.62512C5.88875 8.62512 5.78 8.59213 5.68749 8.53032C5.59499 8.46852 5.52289 8.38066 5.48032 8.27788C5.43775 8.1751 5.42661 8.062 5.44831 7.95288C5.47001 7.84377 5.52359 7.74354 5.60225 7.66488C5.68092 7.58621 5.78115 7.53263 5.89026 7.51093C5.99938 7.48923 6.11248 7.50037 6.21526 7.54294C6.31804 7.58551 6.4059 7.65761 6.4677 7.75011C6.52951 7.84262 6.5625 7.95137 6.5625 8.06262C6.5625 8.21181 6.50324 8.35488 6.39775 8.46037C6.29226 8.56586 6.14919 8.62512 6 8.62512Z" fill="#CBA344"/>
</svg>
